# xmcd
#
# Track frame offsets:
#	225
#	10162
#	27650
#	49209
#	68730
#	80614
#	99357
#	113633
#	133235
#	159969
#	186205
#	217015
#	248121
#	269971
#	289034
#	315508
#
# Disc length: 4427 seconds
# Revision: 1
# Processed by: cddbd v1.5.2PL0 Copyright (c) Steve Scherf et al.
# Submitted via: dBpowerAMP V12.0
#
DISCID=ea114810
DTITLE=John Mayall - The Blues Man
DYEAR=1990
DGENRE=Blues
TTITLE0=I'm Your Witchdoctor
TTITLE1=Mama, Talk To The Daughter
TTITLE2=A Big Man
TTITLE3=Reaching For Mountain
TTITLE4=Lost And Gone
TTITLE5=John Lee Boogie
TTITLE6=Why Worry
TTITLE7=Roadshow
TTITLE8=Mexico City
TTITLE9=Riding On The L And N
TTITLE10=Help Me
TTITLE11=Racehorse Man
TTITLE12=All Your Love
TTITLE13=I Ain't Got You
TTITLE14=Wild About You
TTITLE15=It Ain't Right
EXTD=
EXTT0=
EXTT1=
EXTT2=
EXTT3=
EXTT4=
EXTT5=
EXTT6=
EXTT7=
EXTT8=
EXTT9=
EXTT10=
EXTT11=
EXTT12=
EXTT13=
EXTT14=
EXTT15=
PLAYORDER=
